<?xml version="1.0" encoding="iso-8859-1"?>
<!-- Generator: Adobe Illustrator 19.0.0, SVG Export Plug-In . SVG Version: 6.00 Build 0)  -->
<svg version="1.1" id="Capa_1" xmlns="http://www.w3.org/2000/svg" xmlns:xlink="http://www.w3.org/1999/xlink" x="0px" y="0px"
	 viewBox="0 0 490 490" style="enable-background:new 0 0 490 490;" xml:space="preserve">
<path id="XMLID_1615_" d="M350,399.999c77.196,0,140-62.804,140-140c0-30.192-9.772-59.493-27.701-83.568
	C467.358,165.006,470,152.591,470,140c0-49.626-40.374-90-90-90c-6.455,0-12.854,0.688-19.125,2.054C331.439,18.85,289.754,0,245,0
	s-86.439,18.85-115.875,52.054C122.854,50.688,116.455,50,110,50c-49.626,0-90,40.374-90,90c0,12.591,2.642,25.006,7.701,36.432
	C9.772,200.507,0,229.807,0,260c0,77.196,62.804,140,140,140h30v19.738l-32.209,40.262H65c-8.284,0-15,6.716-15,15
	c0,8.284,6.716,15,15,15h79.86c0.087,0.001,0.174,0.001,0.261,0h199.758c0.044,0,0.087,0,0.131,0c0.043,0,0.087,0,0.13,0H425
	c8.284,0,15-6.716,15-15c0-8.284-6.716-15-15-15h-72.791L320,419.738v-19.738H350z M260,459.999v-15c0-8.284-6.716-15-15-15
	s-15,6.716-15,15v15h-53.791l20.426-25.532c1.13-1.387,2.018-2.98,2.597-4.715v-0.001c0.002-0.006,0.005-0.013,0.007-0.02
	c0-0.001,0-0.002,0.001-0.003c0.002-0.006,0.004-0.011,0.005-0.017c0.001-0.002,0.002-0.003,0.003-0.006
	c0.001-0.005,0.003-0.01,0.004-0.015c0.001-0.003,0.002-0.005,0.003-0.008c0.001-0.004,0.003-0.008,0.004-0.012
	c0.001-0.003,0.003-0.007,0.004-0.011s0.002-0.006,0.003-0.009c0.001-0.004,0.003-0.009,0.005-0.014
	c0-0.002,0.001-0.004,0.002-0.006c0.001-0.006,0.003-0.011,0.005-0.017c0-0.001,0.001-0.002,0.001-0.004
	c0.002-0.006,0.005-0.013,0.007-0.019v-0.002c0.493-1.535,0.729-3.127,0.716-4.712v-55.973c10.699,10.91,20.282,20.68,20.281,20.68
	c6.586,6.715,15.364,10.414,24.719,10.414s18.133-3.698,24.718-10.414L290,368.906v55.973c-0.014,1.585,0.223,3.177,0.716,4.712
	v0.001c0.002,0.006,0.005,0.013,0.007,0.019c0,0.001,0.001,0.002,0.001,0.004c0.002,0.006,0.004,0.011,0.005,0.017
	c0.001,0.002,0.002,0.004,0.002,0.006c0.002,0.004,0.004,0.009,0.005,0.014c0.001,0.003,0.002,0.006,0.003,0.009
	s0.003,0.007,0.004,0.011c0.001,0.004,0.003,0.008,0.004,0.012c0.001,0.003,0.002,0.005,0.003,0.008
	c0.001,0.005,0.003,0.01,0.004,0.015c0.001,0.002,0.002,0.004,0.003,0.006c0.001,0.006,0.003,0.011,0.005,0.017
	c0.001,0.001,0.001,0.001,0.001,0.003c0.002,0.006,0.005,0.013,0.007,0.02v0.001c0.579,1.734,1.467,3.328,2.597,4.715l20.426,25.532
	H260z M192.604,276.551c5.404-5.511,12.568-8.545,20.172-8.545s14.768,3.035,20.172,8.546c0.298,0.303,0.584,0.612,0.865,0.925
	c2,2.225,5.77,5.022,11.616,4.966c4.117-0.04,8.005-1.905,10.757-4.966c0.281-0.313,0.567-0.622,0.865-0.926
	c5.404-5.511,12.568-8.545,20.172-8.545c7.604,0,14.768,3.035,20.173,8.545c11.348,11.571,11.348,30.398,0,41.969
	c-0.003,0.003-0.009,0.007-0.012,0.01c-0.54,0.552-49.085,50.05-49.086,50.05c-1.149,1.173-2.429,1.419-3.299,1.419
	s-2.149-0.246-3.3-1.419l-49.097-50.06C181.256,306.949,181.256,288.122,192.604,276.551z M315.964,252.823
	c-10.713-9.584-24.324-14.817-38.74-14.817c-5.926,0-11.715,0.884-17.224,2.591V175c0-8.284-6.716-15-15-15s-15,6.716-15,15v65.598
	c-5.508-1.707-11.298-2.591-17.223-2.591c-0.001,0,0,0-0.001,0c-14.415,0-28.028,5.233-38.74,14.816l-38.428-38.427
	c-5.857-5.858-15.355-5.858-21.213,0c-5.858,5.858-5.858,15.355,0,21.213l42.831,42.83c-6.7,20.22-2.441,43.416,12.773,59.843
	v31.718h-30c-60.654,0-110-49.346-110-110c0-26.419,9.525-51.97,26.821-71.946c4.229-4.883,4.855-11.924,1.557-17.478
	C52.897,161.346,50,150.774,50,140c0-33.084,26.916-60,60-60c6.671,0,13.253,1.104,19.564,3.28
	c6.065,2.094,12.79,0.095,16.729-4.969C170.182,47.609,206.159,30,245,30s74.818,17.609,98.706,48.311
	c3.94,5.063,10.659,7.062,16.729,4.969C366.747,81.103,373.329,80,380,80c33.084,0,60,26.916,60,60
	c0,10.774-2.897,21.347-8.378,30.576c-3.299,5.554-2.672,12.595,1.557,17.478C450.475,208.03,460,233.581,460,260
	c0,60.654-49.346,110-110,110h-30v-31.717c15.215-16.435,19.473-39.626,12.773-59.843l42.831-42.831
	c5.858-5.857,5.858-15.355,0-21.213c-5.857-5.857-15.355-5.858-21.213,0L315.964,252.823z"/>
<g>
</g>
<g>
</g>
<g>
</g>
<g>
</g>
<g>
</g>
<g>
</g>
<g>
</g>
<g>
</g>
<g>
</g>
<g>
</g>
<g>
</g>
<g>
</g>
<g>
</g>
<g>
</g>
<g>
</g>
</svg>
