<?xml version="1.0" encoding="iso-8859-1"?>
<!-- Generator: Adobe Illustrator 17.1.0, SVG Export Plug-In . SVG Version: 6.00 Build 0)  -->
<!DOCTYPE svg PUBLIC "-//W3C//DTD SVG 1.1//EN" "http://www.w3.org/Graphics/SVG/1.1/DTD/svg11.dtd">
<svg version="1.1" id="Capa_1" xmlns="http://www.w3.org/2000/svg" xmlns:xlink="http://www.w3.org/1999/xlink" x="0px" y="0px"
	 viewBox="0 0 511 511" style="enable-background:new 0 0 511 511;" xml:space="preserve">
<g>
	<path d="M215.5,87h104c4.142,0,7.5-3.358,7.5-7.5c0-26.191-21.309-47.5-47.5-47.5c-11.859,0-22.976,4.337-31.73,12.298
		c-1.466-0.2-2.882-0.298-4.27-0.298C223.925,44,208,59.925,208,79.5C208,83.642,211.358,87,215.5,87z M243.5,59
		c1.475,0,3.04,0.218,4.926,0.687c2.652,0.657,5.453-0.178,7.31-2.184C262.008,50.73,270.447,47,279.5,47
		c15.34,0,28.232,10.683,31.626,25H224.42C227.42,64.395,234.842,59,243.5,59z"/>
	<path d="M470.794,393.22C496.964,352.486,511,305.074,511,255.5c0-68.247-26.577-132.408-74.834-180.666
		C387.908,26.577,323.747,0,255.5,0S123.092,26.577,74.834,74.834C26.577,123.092,0,187.253,0,255.5
		c0,49.574,14.036,96.986,40.206,137.72c0.407,1.733,1.414,3.23,2.791,4.268c9.229,13.751,19.864,26.705,31.837,38.678
		C123.092,484.423,187.253,511,255.5,511s132.408-26.577,180.666-74.834c11.973-11.973,22.608-24.928,31.837-38.678
		C469.38,396.45,470.387,394.953,470.794,393.22z M429.023,313.604c6.305-9.86,9.977-21.557,9.977-34.104
		c0-15.66-5.672-30.508-16.036-42.151c-0.036-1.063-0.097-2.119-0.185-3.168C432.129,207.931,448.071,191,463.5,191
		c11.355,0,20.481,8.469,26.137,15.573c0.504,0.634,1.092,1.16,1.733,1.583C494.432,223.581,496,239.42,496,255.5
		c0,22.846-3.18,45.2-9.301,66.573c-4.89,2.669-10.199,4.467-15.699,5.324V295.5c0-4.142-3.358-7.5-7.5-7.5s-7.5,3.358-7.5,7.5
		v31.924C445.8,325.854,436.421,321.084,429.023,313.604z M375.5,328c-2.861,0-5.699-0.265-8.5-0.77v-4.624l13.803-13.803
		c2.929-2.929,2.929-7.678,0-10.606c-2.929-2.929-7.678-2.929-10.606,0L367,301.394V295.5c0-4.142-3.358-7.5-7.5-7.5
		s-7.5,3.358-7.5,7.5v23.998c0,0.001,0,0.003,0,0.005v4.988c-0.096,0.038-0.195,0.068-0.29,0.11c-5.153,2.256-10.607,3.4-16.21,3.4
		c-6.751,0-13.319-1.681-19.164-4.822C342.174,304.341,359,273.851,359,239.5c0-16.503-3.892-32.522-11.35-47.039
		c3.855-0.967,7.831-1.461,11.85-1.461c26.702,0,48.434,21.688,48.5,48.375c0,0,0,0,0,0.001c-0.02,0.27-0.035,0.54-0.039,0.814
		c-0.029,2.002,0.743,3.932,2.146,5.361C419.065,254.685,424,266.741,424,279.5C424,306.243,402.243,328,375.5,328z M263,327.679
		v-40.177c0-0.001,0-0.003,0-0.005v-20.891l21.803-21.803c2.929-2.929,2.929-7.678,0-10.606c-2.929-2.929-7.678-2.929-10.606,0
		L263,245.394V223.5c0-4.142-3.358-7.5-7.5-7.5s-7.5,3.358-7.5,7.5v39.998c0,0.001,0,0.003,0,0.005v5.891l-15.197-15.197
		c-2.929-2.929-7.678-2.929-10.606,0c-2.929,2.929-2.929,7.678,0,10.606L248,290.606v37.073
		c-14.146-1.193-27.354-5.726-38.833-12.808c-0.266-0.338-0.558-0.661-0.89-0.958c-0.922-0.826-1.993-1.375-3.114-1.666
		C182.121,296.254,167,269.612,167,239.5c0-21.559,7.932-42.377,22.334-58.621c1.342-1.513,2.016-3.504,1.868-5.521l-0.024-0.328
		c-0.092-1.249-0.178-2.429-0.178-3.531c0-28.949,23.551-52.5,52.5-52.5c9.575,0,19.003,2.665,27.265,7.707
		c1.548,0.945,3.388,1.298,5.173,0.99c2.737-0.469,5.21-0.697,7.562-0.697c24.538,0,44.5,19.962,44.5,44.5
		c0,3.513-0.47,7.166-1.397,10.856c-0.533,2.122-0.113,4.371,1.15,6.157C338.382,203.544,344,221.175,344,239.5
		C344,285.772,308.302,323.859,263,327.679z M167.5,328c-5.68,0-11.305-1.239-16.5-3.571v-20.927c0-0.001,0-0.003,0-0.005V271.5
		c0-4.142-3.358-7.5-7.5-7.5s-7.5,3.358-7.5,7.5v13.894l-3.197-3.197c-2.929-2.929-7.678-2.929-10.606,0
		c-2.929,2.929-2.929,7.678,0,10.606L136,306.606v17.823c-5.195,2.332-10.82,3.571-16.5,3.571C97.168,328,79,309.832,79,287.5
		c0-11.537,4.987-22.574,13.683-30.282c1.749-1.55,2.675-3.827,2.505-6.157l-0.023-0.325C95.08,249.587,95,248.502,95,247.5
		c0-26.743,21.757-48.5,48.5-48.5c5.437,0,10.715,0.878,15.755,2.612C154.511,213.592,152,226.425,152,239.5
		c0,32.727,15.272,61.949,39.058,80.929C184.24,325.302,176.009,328,167.5,328z M199.91,120.021
		c-0.137-0.008-0.272-0.021-0.411-0.021h-86.694c2.735-5.338,8.295-9,14.695-9c1.482,0,3.046,0.276,4.923,0.868
		c3.131,0.986,6.538-0.176,8.413-2.87C146.933,100.233,156.901,95,167.5,95s20.567,5.233,26.665,13.998
		c1.874,2.695,5.281,3.857,8.413,2.87c1.877-0.592,3.441-0.868,4.923-0.868c1.617,0,3.205,0.254,4.726,0.71
		C207.811,114.03,203.684,116.82,199.91,120.021z M318.152,123.178C324.361,115.431,333.534,111,343.5,111
		c9.053,0,17.492,3.73,23.764,10.503c1.857,2.005,4.657,2.84,7.31,2.184c1.886-0.468,3.451-0.687,4.926-0.687
		c8.658,0,16.08,5.395,19.08,13h-67.36C327.552,131.083,323.135,126.761,318.152,123.178z M471,342.548
		c3.227-0.382,6.415-1.002,9.533-1.868c-2.81,7.434-5.989,14.723-9.533,21.842V342.548z M85.441,85.441
		C130.865,40.016,191.26,15,255.5,15s124.635,25.016,170.059,70.441c27.549,27.549,47.575,60.609,59.083,96.689
		c-6.731-4.033-13.846-6.13-21.142-6.13c-17.878,0-34.961,13.209-47.037,35.485c-10.37-21-32.001-35.485-56.963-35.485
		c-5.749,0-11.437,0.778-16.931,2.294c0.275-2.285,0.431-4.556,0.431-6.794c0-7.201-1.287-14.106-3.641-20.5H407.5
		c4.142,0,7.5-3.358,7.5-7.5c0-19.575-15.925-35.5-35.5-35.5c-1.388,0-2.804,0.098-4.27,0.298C366.476,100.337,355.359,96,343.5,96
		c-15.079,0-28.928,6.921-37.996,18.99c-0.24,0.32-0.443,0.656-0.625,0.999c-6.64-2.566-13.845-3.989-21.38-3.989
		c-2.37,0-4.791,0.163-7.337,0.495C266.14,106.929,254.907,104,243.5,104c-4.652,0-9.195,0.473-13.585,1.374
		C224.014,99.4,215.932,96,207.5,96c-1.387,0-2.789,0.108-4.222,0.327C194.299,86.022,181.268,80,167.5,80
		s-26.799,6.022-35.778,16.327C130.289,96.108,128.887,96,127.5,96C110.131,96,96,110.131,96,127.5c0,4.142,3.358,7.5,7.5,7.5
		h83.265C179.965,145.532,176,158.058,176,171.5c0,0.629,0.016,1.239,0.042,1.833c-3.861,4.63-7.287,9.555-10.258,14.712
		C158.682,185.374,151.213,184,143.5,184c-17.646,0-33.627,7.24-45.146,18.899C86.459,180.881,67.938,168,47.5,168
		c-5.941,0-11.786,1.126-17.397,3.299C41.989,139.434,60.673,110.209,85.441,85.441z M23.196,192.911
		C30.591,186.429,38.988,183,47.5,183c16.224,0,31.756,12.746,40.713,33.323C82.995,225.54,80,236.174,80,247.5
		c0,0.364,0.006,0.72,0.016,1.069C69.795,258.933,64,272.92,64,287.5c0,10.955,3.203,21.169,8.703,29.781
		c-5.466,5.036-11.455,8.365-17.703,9.841V295.5c0-4.142-3.358-7.5-7.5-7.5s-7.5,3.358-7.5,7.5v31.615
		c-4.354-1.029-8.59-2.951-12.656-5.772c-1.117-0.775-2.37-1.198-3.633-1.305C17.967,299.284,15,277.62,15,255.5
		C15,234.07,17.799,213.072,23.196,192.911z M40,362.522c-3.702-7.436-7.002-15.058-9.902-22.836
		c3.236,1.251,6.55,2.164,9.902,2.706V362.522z M425.559,425.559C380.135,470.984,319.74,496,255.5,496
		s-124.635-25.016-170.059-70.441C73.965,414.083,63.797,401.649,55,388.442v-46.04c8.904-1.408,17.363-5.321,25-11.582V384h-0.5
		c-4.142,0-7.5,3.358-7.5,7.5s3.358,7.5,7.5,7.5h16c4.142,0,7.5-3.358,7.5-7.5s-3.358-7.5-7.5-7.5H95v-46.717
		c5.254,2.596,10.975,4.378,17,5.196V375.5c0,4.142,3.358,7.5,7.5,7.5s7.5-3.358,7.5-7.5v-33.037c3.05-0.421,6.06-1.095,9-2.017V392
		h-8.5c-4.142,0-7.5,3.358-7.5,7.5s3.358,7.5,7.5,7.5h32c4.142,0,7.5-3.358,7.5-7.5s-3.358-7.5-7.5-7.5H151v-51.554
		c5.333,1.672,10.895,2.554,16.5,2.554c0.167,0,0.333-0.012,0.5-0.013V375.5c0,4.142,3.358,7.5,7.5,7.5s7.5-3.358,7.5-7.5v-34.733
		c3.098-0.903,6.109-2.071,9-3.494V384h-0.5c-4.142,0-7.5,3.358-7.5,7.5s3.358,7.5,7.5,7.5h16c4.142,0,7.5-3.358,7.5-7.5
		s-3.358-7.5-7.5-7.5H207v-53.091c2.925,1.558,5.934,2.98,9.017,4.258c-0.005,0.111-0.017,0.221-0.017,0.333v40
		c0,4.142,3.358,7.5,7.5,7.5s7.5-3.358,7.5-7.5v-35.437c5.509,1.342,11.188,2.245,17,2.664V392h-8.5c-4.142,0-7.5,3.358-7.5,7.5
		s3.358,7.5,7.5,7.5h32c4.142,0,7.5-3.358,7.5-7.5s-3.358-7.5-7.5-7.5H263v-49.274c3.038-0.219,6.039-0.571,9-1.047V375.5
		c0,4.142,3.358,7.5,7.5,7.5s7.5-3.358,7.5-7.5v-37.407c5.248-1.68,10.315-3.767,15.163-6.226c0.703,0.529,1.416,1.041,2.14,1.534
		c-0.194,0.667-0.304,1.37-0.304,2.099V384h-0.5c-4.142,0-7.5,3.358-7.5,7.5s3.358,7.5,7.5,7.5h16c4.142,0,7.5-3.358,7.5-7.5
		s-3.358-7.5-7.5-7.5H319v-43.517c2.931,0.912,5.938,1.592,9,2.008V375.5c0,4.142,3.358,7.5,7.5,7.5s7.5-3.358,7.5-7.5v-33.008
		c3.051-0.416,6.054-1.093,9-2.016V392h-8.5c-4.142,0-7.5,3.358-7.5,7.5s3.358,7.5,7.5,7.5h32c4.142,0,7.5-3.358,7.5-7.5
		s-3.358-7.5-7.5-7.5H367v-49.585c2.81,0.383,5.645,0.585,8.5,0.585c2.884,0,5.717-0.211,8.5-0.585V375.5c0,4.142,3.358,7.5,7.5,7.5
		s7.5-3.358,7.5-7.5v-37.027c3.129-1.251,6.139-2.736,9-4.448V384h-0.5c-4.142,0-7.5,3.358-7.5,7.5s3.358,7.5,7.5,7.5h16
		c4.142,0,7.5-3.358,7.5-7.5s-3.358-7.5-7.5-7.5H423v-55.588c2.848,2.369,5.878,4.454,9.047,6.267
		c-0.029,0.27-0.047,0.543-0.047,0.821v40c0,4.142,3.358,7.5,7.5,7.5s7.5-3.358,7.5-7.5v-34.664c2.938,0.784,5.943,1.355,9,1.712
		v45.894C447.203,401.649,437.035,414.083,425.559,425.559z"/>
	<path d="M343.5,416h-72c-4.142,0-7.5,3.358-7.5,7.5s3.358,7.5,7.5,7.5h72c4.142,0,7.5-3.358,7.5-7.5S347.642,416,343.5,416z"/>
	<path d="M247.5,464h-40c-4.142,0-7.5,3.358-7.5,7.5s3.358,7.5,7.5,7.5h40c4.142,0,7.5-3.358,7.5-7.5S251.642,464,247.5,464z"/>
	<path d="M287.5,440h-40c-4.142,0-7.5,3.358-7.5,7.5s3.358,7.5,7.5,7.5h40c4.142,0,7.5-3.358,7.5-7.5S291.642,440,287.5,440z"/>
	<path d="M191.5,440h-24c-4.142,0-7.5,3.358-7.5,7.5s3.358,7.5,7.5,7.5h24c4.142,0,7.5-3.358,7.5-7.5S195.642,440,191.5,440z"/>
	<path d="M215.5,455h8c4.142,0,7.5-3.358,7.5-7.5s-3.358-7.5-7.5-7.5h-8c-4.142,0-7.5,3.358-7.5,7.5S211.358,455,215.5,455z"/>
</g>
<g>
</g>
<g>
</g>
<g>
</g>
<g>
</g>
<g>
</g>
<g>
</g>
<g>
</g>
<g>
</g>
<g>
</g>
<g>
</g>
<g>
</g>
<g>
</g>
<g>
</g>
<g>
</g>
<g>
</g>
</svg>
