<?xml version="1.0" encoding="iso-8859-1"?>
<!-- Generator: Adobe Illustrator 19.0.0, SVG Export Plug-In . SVG Version: 6.00 Build 0)  -->
<svg version="1.1" id="Layer_1" xmlns="http://www.w3.org/2000/svg" xmlns:xlink="http://www.w3.org/1999/xlink" x="0px" y="0px"
	 viewBox="0 0 511.844 511.844" style="enable-background:new 0 0 511.844 511.844;" xml:space="preserve">
<g>
	<path style="fill:#8AC054;" d="M223.936,298.566c0,41.237-33.428,74.665-74.649,74.665s-74.648-33.428-74.648-74.665
		c0-41.214,33.427-74.634,74.648-74.634S223.936,257.352,223.936,298.566z"/>
	<path style="fill:#8AC054;" d="M437.206,277.26c0,41.205-33.427,74.633-74.665,74.633c-41.205,0-74.633-33.428-74.633-74.633
		c0-41.238,33.428-74.657,74.633-74.657C403.779,202.603,437.206,236.022,437.206,277.26z"/>
</g>
<g>
	<path style="fill:#7F4545;" d="M263.924,393.068L156.534,290.99c-4.265-4.062-11.012-3.891-15.073,0.39
		c-4.062,4.249-3.89,11.013,0.375,15.058c0,0,0,0,0,0.016L249.24,408.532L263.924,393.068z"/>
	<path style="fill:#7F4545;" d="M371.352,271.121c-3.374-4.804-10.028-5.943-14.84-2.539l-107.834,76.344l12.309,17.401
		l107.834-76.352C373.632,282.57,374.756,275.916,371.352,271.121z"/>
</g>
<path style="fill:#9ED36A;" d="M362.447,106.632c0,58.896-47.734,106.639-106.631,106.639c-58.889,0-106.624-47.743-106.624-106.639
	C149.191,47.743,196.926,0,255.815,0C314.712,0,362.447,47.743,362.447,106.632z"/>
<path style="fill:#965353;" d="M255.816,95.971c-5.889,0-10.653,4.772-10.653,10.661v405.212h21.321V106.632
	C266.484,100.743,261.704,95.971,255.816,95.971z"/>
<path style="fill:#424953;" d="M287.815,490.507h-63.988c-5.889,0-10.653,4.78-10.653,10.685c0,5.873,4.765,10.652,10.653,10.652
	h63.988c5.873,0,10.652-4.779,10.652-10.652C298.467,495.287,293.688,490.507,287.815,490.507z"/>
<g>
</g>
<g>
</g>
<g>
</g>
<g>
</g>
<g>
</g>
<g>
</g>
<g>
</g>
<g>
</g>
<g>
</g>
<g>
</g>
<g>
</g>
<g>
</g>
<g>
</g>
<g>
</g>
<g>
</g>
</svg>
