<?xml version="1.0" encoding="iso-8859-1"?>
<!-- Generator: Adobe Illustrator 19.0.0, SVG Export Plug-In . SVG Version: 6.00 Build 0)  -->
<svg version="1.1" id="Capa_1" xmlns="http://www.w3.org/2000/svg" xmlns:xlink="http://www.w3.org/1999/xlink" x="0px" y="0px"
	 viewBox="0 0 512 512" style="enable-background:new 0 0 512 512;" xml:space="preserve">
<path style="fill:#AFEBA5;" d="M406.391,365.6h-2.181c-49.627,0-92.082-35.652-100.661-84.532l0,0
	c-3.94-22.45-0.263-45.572,10.448-65.692L402.033,50h-0.046l88.036,165.376c10.711,20.12,14.388,43.242,10.448,65.692l0,0
	c-8.579,48.88-51.034,84.532-100.661,84.532h-2.181"/>
<path style="fill:#32C8AF;" d="M223.55,365.61h-1.79c-40.722,0-75.558-29.254-82.597-69.363l0,0
	c-3.233-18.421-0.216-37.394,8.573-53.903l72.238-135.699h-0.038l72.238,135.699c8.788,16.509,11.806,35.482,8.573,53.903l0,0
	c-7.04,40.109-41.876,69.363-82.597,69.363h-1.79"/>
<path style="fill:#239B87;" d="M76.802,366.089h-1.396c-31.762,0-58.933-22.817-64.423-54.101l0,0
	c-2.522-14.368-0.168-29.166,6.687-42.043l56.343-105.84h-0.029l56.343,105.84c6.855,12.877,9.208,27.675,6.687,42.043l0,0
	c-5.491,31.283-32.662,54.101-64.423,54.101h-1.396"/>
<path d="M510.321,282.797c4.305-24.526,0.231-50.139-11.47-72.12L411.125,45.883c-0.16-0.352-0.34-0.696-0.542-1.032
	c-1.808-3.01-5.084-4.852-8.596-4.852s-6.765,1.842-8.573,4.852c-0.246,0.409-0.46,0.832-0.642,1.264l-87.603,164.562
	c-3.334,6.263-6.026,12.828-8.105,19.572l-68.021-127.777c-0.153-0.333-0.325-0.658-0.515-0.976
	c-1.808-3.01-5.081-4.852-8.592-4.852s-6.765,1.841-8.573,4.852c-0.231,0.384-0.434,0.78-0.608,1.185l-71.846,134.963
	c-2.584,4.855-4.71,9.925-6.394,15.131l-49.458-92.906c-0.146-0.31-0.308-0.615-0.486-0.913c-1.808-3.01-5.076-4.852-8.587-4.852
	s-6.765,1.841-8.573,4.852c-0.214,0.356-0.404,0.724-0.57,1.098L8.843,265.246c-7.864,14.773-10.602,31.987-7.709,48.47
	c5.644,32.157,31,56.455,62.368,61.425V412H10c-5.523,0-10,4.477-10,10s4.477,10,10,10h450.872c5.523,0,10-4.477,10-10
	s-4.477-10-10-10h-49.638v-36.999C460.776,369.992,501.549,332.774,510.321,282.797z M322.824,220.075L402.01,71.324l79.186,148.751
	c9.616,18.063,12.963,39.11,9.425,59.264c-7.088,40.384-39.598,70.631-79.388,75.543v-28.673l56.709-56.709
	c3.905-3.905,3.905-10.237,0-14.143c-3.905-3.905-10.237-3.905-14.143,0l-42.567,42.567v-62.385l32.094-32.094
	c3.905-3.905,3.905-10.237,0-14.143c-3.905-3.905-10.237-3.905-14.143,0l-17.952,17.952v-64.479c0-5.523-4.477-10-10-10
	s-10,4.477-10,10v64.48l-17.953-17.952c-3.905-3.905-10.237-3.905-14.142,0s-3.905,10.237,0,14.142l32.094,32.094v62.386
	l-42.567-42.567c-3.905-3.905-10.237-3.905-14.143,0c-3.905,3.905-3.905,10.237,0,14.143l56.709,56.709v28.466
	c-39.08-5.498-70.84-35.479-77.835-75.336C309.861,259.185,313.208,238.137,322.824,220.075z M156.563,247.042l63.392-119.082
	l63.392,119.082c7.703,14.47,10.384,31.33,7.551,47.475c-5.558,31.666-30.628,55.558-61.58,60.247v-20.733l46.007-46.007
	c3.905-3.905,3.905-10.237,0-14.143c-3.905-3.904-10.237-3.904-14.143,0l-31.865,31.865v-46.115l25.809-25.81
	c3.905-3.905,3.905-10.237,0-14.142s-10.237-3.905-14.142,0l-11.667,11.667V182.77c0-5.523-4.477-10-10-10s-10,4.477-10,10v48.576
	l-11.667-11.667c-3.905-3.905-10.237-3.905-14.143,0c-3.905,3.905-3.905,10.237,0,14.143l25.81,25.81v46.114l-31.865-31.865
	c-3.905-3.904-10.237-3.904-14.143,0c-3.905,3.905-3.905,10.237,0,14.143l46.007,46.007v20.522
	c-30.363-5.144-54.824-28.805-60.306-60.034C146.179,278.373,148.861,261.512,156.563,247.042z M20.833,310.259
	c-2.126-12.111-0.114-24.76,5.664-35.615l47.501-89.231l47.501,89.231c5.779,10.854,7.791,23.503,5.664,35.615
	c-4.017,22.885-21.618,40.359-43.663,44.754v-18.349l31.75-31.75c3.905-3.905,3.905-10.237,0-14.142s-10.237-3.905-14.142,0
	L83.501,308.38v-20.912L96.56,274.41c3.905-3.905,3.906-10.237,0-14.142c-3.563-3.563-9.141-3.864-13.059-0.925v-18.542
	c0-5.523-4.477-10-10-10s-10,4.477-10,10v18.542c-3.917-2.939-9.495-2.638-13.058,0.926c-3.905,3.905-3.905,10.237,0,14.142
	l13.058,13.057v20.912l-17.607-17.607c-3.905-3.905-10.237-3.905-14.142,0s-3.906,10.237,0,14.142l31.75,31.75v18.133
	C41.925,350.08,24.789,332.798,20.833,310.259z M83.501,375.29c25.942-3.757,47.892-20.713,58.213-44.457
	c14.544,23.756,39.214,40.194,67.604,43.95V412H83.501V375.29z M229.318,412v-37.06c34.351-4.069,63.43-26.681,76.033-58.435
	c17.111,31.926,48.967,54.087,85.882,58.336V412H229.318z"/>
<path d="M509.07,414.93c-1.86-1.86-4.44-2.93-7.07-2.93s-5.21,1.07-7.07,2.93c-1.86,1.86-2.93,4.44-2.93,7.07s1.07,5.21,2.93,7.07
	c1.86,1.86,4.44,2.93,7.07,2.93s5.21-1.07,7.07-2.93S512,424.63,512,422S510.93,416.79,509.07,414.93z"/>
<path d="M446.451,452h-69.829c-5.523,0-10,4.477-10,10s4.477,10,10,10h69.829c5.523,0,10-4.477,10-10S451.974,452,446.451,452z"/>
<path d="M108.18,472h220.707c5.523,0,10-4.477,10-10s-4.477-10-10-10H108.18c-5.523,0-10,4.477-10,10S102.657,472,108.18,472z"/>
<path d="M64,452c-2.63,0-5.21,1.07-7.07,2.93C55.07,456.79,54,459.37,54,462s1.07,5.21,2.93,7.07c1.86,1.86,4.44,2.93,7.07,2.93
	c2.63,0,5.21-1.07,7.07-2.93S74,464.63,74,462s-1.07-5.21-2.93-7.07C69.21,453.07,66.63,452,64,452z"/>
<path d="M211.754,492H178.93c-5.523,0-10,4.477-10,10s4.477,10,10,10h32.824c5.523,0,10-4.477,10-10S217.277,492,211.754,492z"/>
<path d="M131.195,492H99.776c-5.523,0-10,4.477-10,10s4.477,10,10,10h31.419c5.523,0,10-4.477,10-10S136.718,492,131.195,492z"/>
<path d="M412.197,492H259.49c-5.523,0-10,4.477-10,10s4.477,10,10,10h152.707c5.523,0,10-4.477,10-10S417.72,492,412.197,492z"/>
<path d="M252.834,20C263.954,20,273,29.046,273,40.166c0,5.523,4.477,10,10,10s10-4.477,10-10C293,29.046,302.046,20,313.166,20
	c5.523,0,10-4.477,10-10s-4.477-10-10-10C301.155,0,290.367,5.306,283,13.689C275.633,5.306,264.845,0,252.834,0
	c-5.523,0-10,4.477-10,10S247.311,20,252.834,20z"/>
<path d="M10,44.917c11.12,0,20.166,9.046,20.166,20.166c0,5.523,4.477,10,10,10s10-4.477,10-10c0-11.12,9.046-20.166,20.166-20.166
	c5.523,0,10-4.477,10-10s-4.477-10-10-10c-12.011,0-22.799,5.306-30.166,13.689C32.799,30.223,22.011,24.917,10,24.917
	c-5.523,0-10,4.477-10,10S4.477,44.917,10,44.917z"/>
<path d="M131.668,75.083c11.12,0,20.166,9.046,20.166,20.166c0,5.523,4.477,10,10,10s10-4.477,10-10
	c0-11.12,9.046-20.166,20.166-20.166c5.523,0,10-4.477,10-10s-4.477-10-10-10c-12.011,0-22.799,5.306-30.166,13.689
	c-7.367-8.383-18.155-13.689-30.166-13.689c-5.523,0-10,4.477-10,10S126.145,75.083,131.668,75.083z"/>
<g>
</g>
<g>
</g>
<g>
</g>
<g>
</g>
<g>
</g>
<g>
</g>
<g>
</g>
<g>
</g>
<g>
</g>
<g>
</g>
<g>
</g>
<g>
</g>
<g>
</g>
<g>
</g>
<g>
</g>
</svg>
