<?xml version="1.0" encoding="iso-8859-1"?>
<!-- Generator: Adobe Illustrator 19.0.0, SVG Export Plug-In . SVG Version: 6.00 Build 0)  -->
<svg version="1.1" id="Capa_1" xmlns="http://www.w3.org/2000/svg" xmlns:xlink="http://www.w3.org/1999/xlink" x="0px" y="0px"
	 viewBox="0 0 512 512" style="enable-background:new 0 0 512 512;" xml:space="preserve">
<path style="fill:#32D736;" d="M512,285c0,66.599-39.401,105-106,105c-59.099,0-96.899-31.199-103.801-85.201l27.9-128.399
	C350.799,140.099,377.8,120,406,120C470.2,120,512,217.8,512,285z"/>
<path style="fill:#10BB67;" d="M512,285c0,66.599-39.401,105-106,105V120C470.2,120,512,217.8,512,285z"/>
<path style="fill:#8B4330;" d="M449.5,261.599L421,318.6V465c0,8.401-6.599,16-15,16s-15-7.599-15-16V321.301L365.501,295.5
	c-6-5.7-6-15.298,0-20.999c5.7-6,15.298-6,20.999,0l15.3,15.298l4.2-8.399l16.5-32.999c3.9-7.5,12.9-10.501,20.099-6.901
	C450.099,245.4,453.1,254.399,449.5,261.599z"/>
<path style="fill:#763220;" d="M449.5,261.599L421,318.6V465c0,8.401-6.599,16-15,16V281.4l16.5-32.999
	c3.9-7.5,12.9-10.501,20.099-6.901C450.099,245.4,453.1,254.399,449.5,261.599z"/>
<path style="fill:#32D736;" d="M361,225c0,96.899-54.3,105-105,105c-26.4,0-56.1-1.5-77.401-21l-18.9-160.8
	C174.401,76.5,207.7,0,256,0C323.8,0,361,148.5,361,225z"/>
<path style="fill:#10BB67;" d="M361,225c0,96.899-54.3,105-105,105V0C323.8,0,361,148.5,361,225z"/>
<path style="fill:#8B4330;" d="M296.499,205.499L271,231.301V465c0,8.401-6.599,16-15,16s-15-7.599-15-16V228.6l-28.5-57.001
	c-3.6-7.2-0.599-16.199,6.901-20.099c7.2-3.6,16.199-0.599,20.099,6.901L256,191.4l4.2,8.399l15.3-15.298c5.7-6,15.298-6,20.999,0
	C302.5,190.201,302.5,199.799,296.499,205.499z"/>
<path style="fill:#763220;" d="M296.499,205.499L271,231.301V465c0,8.401-6.599,16-15,16V191.4l4.2,8.399l15.3-15.298
	c5.7-6,15.298-6,20.999,0C302.5,190.201,302.5,199.799,296.499,205.499z"/>
<path style="fill:#32D736;" d="M106,60C41.8,60,0,188.101,0,255c0,66.599,39.401,105,106,105s105-38.401,105-105
	C211,188.101,170.2,60,106,60z"/>
<path style="fill:#10BB67;" d="M211,255c0,66.599-38.401,105-105,105V60C170.2,60,211,188.101,211,255z"/>
<path style="fill:#8B4330;" d="M146.499,265.499L121,291.301V465c0,8.401-6.599,16-15,16s-15-7.599-15-16V288.6l-28.5-57.001
	c-3.6-7.2-0.599-16.199,6.901-20.099c7.2-3.6,16.199-0.599,20.099,6.901L106,251.4l4.2,8.399l15.3-15.298c5.7-6,15.298-6,20.999,0
	C152.5,250.201,152.5,259.799,146.499,265.499z"/>
<path style="fill:#763220;" d="M146.499,265.499L121,291.301V465c0,8.401-6.599,16-15,16V251.4l4.2,8.399l15.3-15.298
	c5.7-6,15.298-6,20.999,0C152.5,250.201,152.5,259.799,146.499,265.499z"/>
<path style="fill:#8B4330;" d="M196,481c-8.291,0-15-7.709-15-16v-90c0-8.291,6.709-15,15-15s15,6.709,15,15v90
	C211,473.291,204.291,481,196,481z"/>
<path style="fill:#763220;" d="M316,481c-8.291,0-15-7.709-15-16v-60c0-8.291,6.709-15,15-15s15,6.709,15,15v60
	C331,473.291,324.291,481,316,481z"/>
<path style="fill:#32D736;" d="M497,450H15c-8.401,0-15,6.599-15,15v32c0,8.401,6.599,15,15,15h482c8.401,0,15-6.599,15-15v-32
	C512,456.599,505.401,450,497,450z"/>
<path style="fill:#10BB67;" d="M512,465v32c0,8.401-6.599,15-15,15H256v-62h241C505.401,450,512,456.599,512,465z"/>
<g>
</g>
<g>
</g>
<g>
</g>
<g>
</g>
<g>
</g>
<g>
</g>
<g>
</g>
<g>
</g>
<g>
</g>
<g>
</g>
<g>
</g>
<g>
</g>
<g>
</g>
<g>
</g>
<g>
</g>
</svg>
