<?xml version="1.0" encoding="iso-8859-1"?>
<!-- Generator: Adobe Illustrator 19.0.0, SVG Export Plug-In . SVG Version: 6.00 Build 0)  -->
<svg version="1.1" id="Capa_1" xmlns="http://www.w3.org/2000/svg" xmlns:xlink="http://www.w3.org/1999/xlink" x="0px" y="0px"
	 viewBox="0 0 512 512" style="enable-background:new 0 0 512 512;" xml:space="preserve">
<path style="fill:#F25353;" d="M256,484c0,0,246-159.012,246-308.067C502,94.232,438.205,28,359.511,28
	C318.74,28,281.973,45.781,256,74.277C230.027,45.781,193.26,28,152.489,28C73.795,28,10,94.232,10,175.933
	C10,324.988,256,484,256,484z"/>
<path style="fill:#59AA33;" d="M87.991,150.887c-0.063,0.775-26.327,79.326,42.263,147.915s147.912,42.259,147.912,42.259
	s26.33-79.322-42.259-147.912S87.991,150.887,87.991,150.887z"/>
<path style="fill:#A3ED5C;" d="M276.093,193.15c-68.59,68.59-42.259,147.912-42.259,147.912s79.322,26.33,147.912-42.259
	s42.325-147.14,42.263-147.915C424.009,150.887,344.683,124.561,276.093,193.15z"/>
<path d="M359.511,18C320.602,18,284.228,32.819,256,59.95C227.772,32.819,191.398,18,152.489,18C68.406,18,0,88.848,0,175.933
	c0,35.948,13.467,75.119,40.026,116.427c20.837,32.406,49.801,66.306,86.089,100.755c61.464,58.351,123.833,98.882,124.456,99.284
	c1.652,1.067,3.54,1.602,5.429,1.602s3.776-0.534,5.429-1.602c0.623-0.402,62.992-40.934,124.456-99.284
	c36.288-34.449,65.252-68.349,86.089-100.755C498.533,251.052,512,211.88,512,175.933C512,88.848,443.594,18,359.511,18z
	 M372.337,378.398c-49.721,47.24-100.057,82.55-116.337,93.581c-16.28-11.031-66.616-46.342-116.337-93.581
	C85.073,326.533,20,249.306,20,175.933C20,99.876,79.435,38,152.489,38c36.702,0,70.839,15.276,96.12,43.014
	c1.895,2.079,4.577,3.264,7.391,3.264s5.496-1.185,7.391-3.264C288.672,53.276,322.809,38,359.511,38
	C432.565,38,492,99.876,492,175.933C492,249.306,426.927,326.533,372.337,378.398z"/>
<path d="M433.715,148.479c-0.816-3.292-3.267-5.991-6.556-7.082c-0.887-0.294-22.055-7.181-52.087-5.075
	c-27.617,1.937-68.435,12.141-106.051,49.757l0,0c-28.881,28.882-41.593,59.643-46.82,84.875l-66.505-66.504
	c-3.906-3.905-10.236-3.905-14.143,0c-3.905,3.905-3.905,10.237,0,14.142l74.445,74.444c0.916,0.915,1.967,1.607,3.086,2.094
	c-1.465,28.431,4.973,48.225,5.257,49.082c0.995,2.996,3.345,5.346,6.341,6.341c0.77,0.255,16.811,5.476,40.665,5.476
	c3.634,0,7.449-0.122,11.42-0.4c27.616-1.936,68.433-12.14,106.049-49.755c66.584-66.583,49.113-142.685,44.935-157.264
	L433.715,148.479z M374.675,291.73c-26.466,26.466-57.573,41.231-92.459,43.885c-10.96,0.833-20.595,0.277-28.137-0.657
	L359.52,229.52c3.905-3.905,3.905-10.237,0-14.142s-10.237-3.905-14.143,0L239.939,320.814
	c-3.122-25.57-1.783-75.584,43.225-120.592c26.466-26.466,57.574-41.232,92.461-43.886c18.24-1.391,32.857,1.068,40.159,2.722
	C420.359,179.181,427.825,238.582,374.675,291.73z"/>
<path d="M228.836,200.221c1.953,1.953,4.512,2.929,7.071,2.929s5.118-0.977,7.071-2.929c3.905-3.905,3.905-10.237,0-14.142
	l-0.146-0.145c-3.933-3.861-10.233-3.8-14.108,0.123c-3.873,3.923-3.826,10.254,0.086,14.138L228.836,200.221z"/>
<path d="M192.094,327.452c-19.979-7.34-38.406-19.358-54.769-35.721c-53.136-53.135-45.688-112.518-41.113-132.658
	c15.093-3.372,61.332-10.041,107.396,20.42c4.606,3.046,10.812,1.782,13.856-2.826c3.047-4.606,1.782-10.811-2.825-13.857
	c-64.197-42.453-127.149-22.293-129.798-21.415c-3.289,1.092-5.74,3.791-6.556,7.083l-0.037,0.129
	c-4.179,14.579-21.649,90.681,44.935,157.264c18.429,18.428,39.294,32.004,62.015,40.352c1.138,0.418,2.302,0.616,3.447,0.616
	c4.073,0,7.901-2.508,9.388-6.555C199.937,335.104,197.278,329.357,192.094,327.452z"/>
<g>
</g>
<g>
</g>
<g>
</g>
<g>
</g>
<g>
</g>
<g>
</g>
<g>
</g>
<g>
</g>
<g>
</g>
<g>
</g>
<g>
</g>
<g>
</g>
<g>
</g>
<g>
</g>
<g>
</g>
</svg>
