<?xml version="1.0" encoding="iso-8859-1"?>
<!-- Generator: Adobe Illustrator 19.0.0, SVG Export Plug-In . SVG Version: 6.00 Build 0)  -->
<svg version="1.1" id="Layer_1" xmlns="http://www.w3.org/2000/svg" xmlns:xlink="http://www.w3.org/1999/xlink" x="0px" y="0px"
	 viewBox="0 0 512 512" style="enable-background:new 0 0 512 512;" xml:space="preserve">
<path style="fill:#7E895C;" d="M189.217,411.826H139.13C62.29,411.826,0,349.536,0,272.696l0,0
	c0-34.806,12.802-66.609,33.927-91.008c-7.402-12.464-11.666-27.009-11.666-42.557c0-46.103,37.375-83.478,83.478-83.478
	c9.534,0,18.685,1.621,27.219,4.563C161.467,23.574,205.978,0,256,0l0,0c50.022,0,94.533,23.574,123.041,60.216
	c8.535-2.943,17.685-4.563,27.22-4.563c46.103,0,83.478,37.375,83.478,83.478c0,15.548-4.264,30.093-11.666,42.557
	C499.198,206.087,512,237.889,512,272.696l0,0c0,76.84-62.29,139.13-139.13,139.13h-50.087H189.217z"/>
<path style="fill:#ABB974;" d="M489.739,139.13c0,15.548-4.264,30.093-11.666,42.557c0.568,0.656,1.125,1.318,1.681,1.983
	c-25.522,30.595-63.927,50.068-106.884,50.068h-50.087H189.217H139.13c-42.957,0-81.362-19.473-106.883-50.068
	c0.555-0.666,1.113-1.329,1.681-1.983c-7.403-12.464-11.667-27.009-11.667-42.557c0-46.103,37.375-83.478,83.478-83.478
	c9.534,0,18.685,1.621,27.219,4.563C161.467,23.574,205.978,0,256,0l0,0c50.022,0,94.533,23.574,123.041,60.216
	c8.535-2.943,17.685-4.563,27.22-4.563C452.364,55.652,489.739,93.027,489.739,139.13z"/>
<path style="fill:#CC6E31;" d="M382.353,502.537c-2.78,5.785-8.631,9.463-15.048,9.463H144.696c-6.418,0-12.268-3.679-15.048-9.463
	c-2.78-5.784-1.998-12.651,2.011-17.663l40.863-51.079v-94.317c0-9.22,7.475-16.696,16.696-16.696h133.565
	c9.22,0,16.696,7.475,16.696,16.696v94.317l40.863,51.079C384.351,489.886,385.133,496.752,382.353,502.537z"/>
<path style="fill:#7A210A;" d="M380.341,484.874c4.009,5.012,4.792,11.877,2.011,17.663c-2.78,5.785-8.631,9.463-15.048,9.463H256
	V322.783h66.783c9.22,0,16.696,7.475,16.696,16.696v94.317L380.341,484.874z"/>
<path style="fill:#50210A;" d="M189.892,277.586c6.52,6.52,6.52,17.091,0,23.611c-3.259,3.26-7.532,4.89-11.805,4.89
	s-8.546-1.629-11.805-4.891l-55.65-55.65c-6.52-6.52-6.52-17.091,0-23.611c6.519-6.52,17.091-6.52,23.611,0L189.892,277.586z
	 M401.368,221.936c-6.519-6.52-17.091-6.52-23.611,0l-55.65,55.65c-6.52,6.52-6.52,17.091,0,23.611
	c3.26,3.26,7.533,4.89,11.806,4.89c4.273,0,8.546-1.629,11.805-4.891l55.65-55.65C407.888,239.027,407.888,228.457,401.368,221.936z
	 M256,161.391c-9.22,0-16.696,7.475-16.696,16.696v100.174c0,9.22,7.475,16.696,16.696,16.696s16.696-7.475,16.696-16.696V178.087
	C272.696,168.867,265.22,161.391,256,161.391z M456.348,478.609H272.696v-16.696c0-9.22-7.475-16.696-16.696-16.696
	s-16.696,7.475-16.696,16.696v16.696H55.652c-9.22,0-16.696,7.475-16.696,16.696S46.432,512,55.652,512h400.696
	c9.22,0,16.696-7.475,16.696-16.696S465.568,478.609,456.348,478.609z"/>
<path style="fill:#F25243;" d="M176.506,271.663L176.506,271.663c21.484-21.906,56.318-21.906,77.802,0l0,0
	c0.567,0.578,1.115,1.168,1.653,1.764l0.039-0.04l0.039,0.04c0.536-0.597,1.085-1.186,1.653-1.764l0,0
	c21.484-21.906,56.318-21.906,77.802,0l0,0c21.484,21.906,21.484,57.423,0,79.329l0,0c-0.567,0.578-61.846,63.061-61.846,63.061
	c-9.746,9.937-25.548,9.937-35.295,0c0,0-61.279-62.482-61.846-63.061l0,0C155.022,329.086,155.022,293.569,176.506,271.663z"/>
<path style="fill:#B90020;" d="M238.353,414.051c0,0-61.279-62.482-61.846-63.061l0,0c-21.484-21.906-21.484-57.423,0-79.329l0,0
	c21.484-21.906,56.318-21.906,77.802,0l0,0c0.567,0.578,1.115,1.168,1.653,1.764l0.039-0.04v148.118
	C249.613,421.505,243.226,419.021,238.353,414.051z"/>
<g>
</g>
<g>
</g>
<g>
</g>
<g>
</g>
<g>
</g>
<g>
</g>
<g>
</g>
<g>
</g>
<g>
</g>
<g>
</g>
<g>
</g>
<g>
</g>
<g>
</g>
<g>
</g>
<g>
</g>
</svg>
